<svg xmlns="http://www.w3.org/2000/svg" xmlns:xlink="http://www.w3.org/1999/xlink" width="500" zoomAndPan="magnify" viewBox="0 0 375 374.999991" height="500" preserveAspectRatio="xMidYMid meet" version="1.0"><defs><g/><clipPath id="e99c21da90"><path d="M 74 180 L 88 180 L 88 216.578125 L 74 216.578125 Z M 74 180 " clip-rule="nonzero"/></clipPath><clipPath id="a0a1134655"><path d="M 62.050781 204 L 75 204 L 75 216.578125 L 62.050781 216.578125 Z M 62.050781 204 " clip-rule="nonzero"/></clipPath><clipPath id="6ad9154ac5"><path d="M 93 158.078125 L 106 158.078125 L 106 216.578125 L 93 216.578125 Z M 93 158.078125 " clip-rule="nonzero"/></clipPath><clipPath id="337bba92e9"><path d="M 81 204 L 94 204 L 94 216.578125 L 81 216.578125 Z M 81 204 " clip-rule="nonzero"/></clipPath><clipPath id="dea4eb9859"><path d="M 111 166 L 124.300781 166 L 124.300781 216.578125 L 111 216.578125 Z M 111 166 " clip-rule="nonzero"/></clipPath><clipPath id="bc7abbdfb0"><path d="M 99 204 L 112 204 L 112 216.578125 L 99 216.578125 Z M 99 204 " clip-rule="nonzero"/></clipPath></defs><g clip-path="url(#e99c21da90)"><path fill="#39b54a" d="M 74.90625 191.65625 L 74.90625 216.902344 L 87.238281 204.589844 L 87.238281 180.472656 Z M 74.90625 191.65625 " fill-opacity="1" fill-rule="nonzero"/></g><g clip-path="url(#a0a1134655)"><path fill="#0c3214" d="M 74.90625 204.589844 L 62.59375 216.902344 C 73.328125 216.902344 64.9375 216.902344 74.90625 216.902344 Z M 74.90625 204.589844 " fill-opacity="1" fill-rule="nonzero"/></g><g clip-path="url(#6ad9154ac5)"><path fill="#39b54a" d="M 93.375 169.285156 L 93.375 216.902344 L 105.707031 204.589844 L 105.707031 158.097656 Z M 93.375 169.285156 " fill-opacity="1" fill-rule="nonzero"/></g><g clip-path="url(#337bba92e9)"><path fill="#0c3214" d="M 93.375 204.589844 L 81.0625 216.902344 C 91.796875 216.902344 83.40625 216.902344 93.375 216.902344 Z M 93.375 204.589844 " fill-opacity="1" fill-rule="nonzero"/></g><g clip-path="url(#dea4eb9859)"><path fill="#39b54a" d="M 111.84375 177.675781 L 111.84375 216.902344 L 124.195312 204.589844 L 124.195312 166.488281 Z M 111.84375 177.675781 " fill-opacity="1" fill-rule="nonzero"/></g><g clip-path="url(#bc7abbdfb0)"><path fill="#0c3214" d="M 111.84375 204.589844 L 99.53125 216.902344 C 110.265625 216.902344 101.875 216.902344 111.84375 216.902344 Z M 111.84375 204.589844 " fill-opacity="1" fill-rule="nonzero"/></g><g fill="#000000" fill-opacity="1"><g transform="translate(141.799507, 201.333018)"><g><path d="M 11.203125 -6.921875 C 11.941406 -6.679688 12.523438 -6.273438 12.953125 -5.703125 C 13.390625 -5.140625 13.609375 -4.441406 13.609375 -3.609375 C 13.609375 -2.453125 13.160156 -1.5625 12.265625 -0.9375 C 11.378906 -0.3125 10.085938 0 8.390625 0 L 1.78125 0 L 1.78125 -13.296875 L 8.015625 -13.296875 C 9.585938 -13.296875 10.796875 -12.988281 11.640625 -12.375 C 12.492188 -11.757812 12.921875 -10.914062 12.921875 -9.84375 C 12.921875 -9.1875 12.769531 -8.601562 12.46875 -8.09375 C 12.164062 -7.582031 11.742188 -7.191406 11.203125 -6.921875 Z M 4.25 -11.359375 L 4.25 -7.6875 L 7.75 -7.6875 C 8.613281 -7.6875 9.273438 -7.84375 9.734375 -8.15625 C 10.203125 -8.46875 10.4375 -8.921875 10.4375 -9.515625 C 10.4375 -10.128906 10.203125 -10.585938 9.734375 -10.890625 C 9.273438 -11.203125 8.613281 -11.359375 7.75 -11.359375 Z M 8.25 -1.9375 C 10.15625 -1.9375 11.109375 -2.578125 11.109375 -3.859375 C 11.109375 -5.140625 10.15625 -5.78125 8.25 -5.78125 L 4.25 -5.78125 L 4.25 -1.9375 Z M 8.25 -1.9375 "/></g></g></g><g fill="#000000" fill-opacity="1"><g transform="translate(160.492585, 201.333018)"><g><path d="M 7.5 0.1875 C 5.664062 0.1875 4.234375 -0.328125 3.203125 -1.359375 C 2.179688 -2.390625 1.671875 -3.867188 1.671875 -5.796875 L 1.671875 -13.296875 L 4.140625 -13.296875 L 4.140625 -5.890625 C 4.140625 -3.273438 5.269531 -1.96875 7.53125 -1.96875 C 9.769531 -1.96875 10.890625 -3.273438 10.890625 -5.890625 L 10.890625 -13.296875 L 13.3125 -13.296875 L 13.3125 -5.796875 C 13.3125 -3.867188 12.800781 -2.390625 11.78125 -1.359375 C 10.769531 -0.328125 9.34375 0.1875 7.5 0.1875 Z M 7.5 0.1875 "/></g></g></g><g fill="#000000" fill-opacity="1"><g transform="translate(179.717549, 201.333018)"><g><path d="M 1.78125 -13.296875 L 4.25 -13.296875 L 4.25 -2.09375 L 11.203125 -2.09375 L 11.203125 0 L 1.78125 0 Z M 1.78125 -13.296875 "/></g></g></g><g fill="#000000" fill-opacity="1"><g transform="translate(195.333254, 201.333018)"><g><path d="M 1.78125 -13.296875 L 4.25 -13.296875 L 4.25 -2.09375 L 11.203125 -2.09375 L 11.203125 0 L 1.78125 0 Z M 1.78125 -13.296875 "/></g></g></g><g fill="#000000" fill-opacity="1"><g transform="translate(210.948957, 201.333018)"><g><path d="M 10.484375 0 L 7.765625 -3.890625 C 7.648438 -3.878906 7.484375 -3.875 7.265625 -3.875 L 4.25 -3.875 L 4.25 0 L 1.78125 0 L 1.78125 -13.296875 L 7.265625 -13.296875 C 8.410156 -13.296875 9.410156 -13.101562 10.265625 -12.71875 C 11.117188 -12.34375 11.773438 -11.800781 12.234375 -11.09375 C 12.691406 -10.382812 12.921875 -9.539062 12.921875 -8.5625 C 12.921875 -7.5625 12.675781 -6.703125 12.1875 -5.984375 C 11.695312 -5.265625 11 -4.726562 10.09375 -4.375 L 13.140625 0 Z M 10.4375 -8.5625 C 10.4375 -9.414062 10.15625 -10.066406 9.59375 -10.515625 C 9.039062 -10.972656 8.222656 -11.203125 7.140625 -11.203125 L 4.25 -11.203125 L 4.25 -5.90625 L 7.140625 -5.90625 C 8.222656 -5.90625 9.039062 -6.132812 9.59375 -6.59375 C 10.15625 -7.0625 10.4375 -7.71875 10.4375 -8.5625 Z M 10.4375 -8.5625 "/></g></g></g><g fill="#000000" fill-opacity="1"><g transform="translate(229.07214, 201.333018)"><g><path d="M 7.5 0.1875 C 5.664062 0.1875 4.234375 -0.328125 3.203125 -1.359375 C 2.179688 -2.390625 1.671875 -3.867188 1.671875 -5.796875 L 1.671875 -13.296875 L 4.140625 -13.296875 L 4.140625 -5.890625 C 4.140625 -3.273438 5.269531 -1.96875 7.53125 -1.96875 C 9.769531 -1.96875 10.890625 -3.273438 10.890625 -5.890625 L 10.890625 -13.296875 L 13.3125 -13.296875 L 13.3125 -5.796875 C 13.3125 -3.867188 12.800781 -2.390625 11.78125 -1.359375 C 10.769531 -0.328125 9.34375 0.1875 7.5 0.1875 Z M 7.5 0.1875 "/></g></g></g><g fill="#000000" fill-opacity="1"><g transform="translate(248.297109, 201.333018)"><g><path d="M 13.609375 -13.296875 L 13.609375 0 L 11.578125 0 L 4.234375 -9 L 4.234375 0 L 1.78125 0 L 1.78125 -13.296875 L 3.8125 -13.296875 L 11.15625 -4.296875 L 11.15625 -13.296875 Z M 13.609375 -13.296875 "/></g></g></g><g fill="#000000" fill-opacity="1"><g transform="translate(267.920989, 201.333018)"><g><path d="M 2.3125 0.140625 C 1.882812 0.140625 1.519531 -0.0078125 1.21875 -0.3125 C 0.914062 -0.613281 0.765625 -0.988281 0.765625 -1.4375 C 0.765625 -1.90625 0.910156 -2.285156 1.203125 -2.578125 C 1.503906 -2.867188 1.875 -3.015625 2.3125 -3.015625 C 2.757812 -3.015625 3.128906 -2.867188 3.421875 -2.578125 C 3.722656 -2.285156 3.875 -1.90625 3.875 -1.4375 C 3.875 -0.988281 3.722656 -0.613281 3.421875 -0.3125 C 3.117188 -0.0078125 2.75 0.140625 2.3125 0.140625 Z M 2.3125 0.140625 "/></g></g></g><g fill="#cb6ce6" fill-opacity="1"><g transform="translate(276.799499, 201.333018)"><g><path d="M 10.40625 -3.078125 L 3.765625 -3.078125 L 2.453125 0 L -0.09375 0 L 5.890625 -13.296875 L 8.328125 -13.296875 L 14.328125 0 L 11.734375 0 Z M 9.59375 -5.015625 L 7.09375 -10.828125 L 4.59375 -5.015625 Z M 9.59375 -5.015625 "/></g></g></g><g fill="#cb6ce6" fill-opacity="1"><g transform="translate(295.264621, 201.333018)"><g><path d="M 1.78125 -13.296875 L 4.25 -13.296875 L 4.25 0 L 1.78125 0 Z M 1.78125 -13.296875 "/></g></g></g></svg>